<?xml version="1.0" encoding="utf-8"?>
<!-- Generator: Adobe Illustrator 15.0.0, SVG Export Plug-In . SVG Version: 6.00 Build 0)  -->
<!DOCTYPE svg PUBLIC "-//W3C//DTD SVG 1.1//EN" "http://www.w3.org/Graphics/SVG/1.1/DTD/svg11.dtd">
<svg version="1.1" id="Calque_1" xmlns="http://www.w3.org/2000/svg" xmlns:xlink="http://www.w3.org/1999/xlink" x="0px" y="0px"
	 width="1200px" height="800px" viewBox="0 0 1200 800" enable-background="new 0 0 1200 800" xml:space="preserve">
<path fill="none" stroke="#FFEC00" stroke-width="41.4339" d="M762.276,400.001c0,89.62-72.649,162.272-162.272,162.272
	c-89.617,0-162.277-72.65-162.277-162.272c0-89.622,72.658-162.273,162.277-162.273
	C689.625,237.727,762.276,310.379,762.276,400.001z"/>
<path fill="#FFEC00" d="M626.444,427.545V324.82h46.31v104.368c0,40.666-24.912,62.057-71.222,62.057
	c-49.128,0-74.278-21.621-74.278-62.057V324.82h55.938v102.725c0,16.928,6.576,23.975,21.855,23.975
	C620.096,451.517,626.444,444.47,626.444,427.545z"/>
</svg>
