<?xml version="1.0" encoding="utf-8"?>
<!-- Generator: Adobe Illustrator 15.0.0, SVG Export Plug-In . SVG Version: 6.00 Build 0)  -->
<!DOCTYPE svg PUBLIC "-//W3C//DTD SVG 1.1//EN" "http://www.w3.org/Graphics/SVG/1.1/DTD/svg11.dtd">
<svg version="1.1" id="Calque_1" xmlns="http://www.w3.org/2000/svg" xmlns:xlink="http://www.w3.org/1999/xlink" x="0px" y="0px"
	 width="1200px" height="800px" viewBox="0 0 1200 800" enable-background="new 0 0 1200 800" xml:space="preserve">
<path fill="#FFEC00" d="M625.926,397.82c0-50.705,34.746-79.336,78.021-79.336c43.496,0,78.248,28.631,78.248,79.336
	c0,50.701-33.658,78.457-78.248,78.457C659.362,476.277,625.926,448.521,625.926,397.82z M729.516,398.039
	c0-30.598-10.268-43.059-25.568-43.059s-25.568,12.461-25.568,43.059c0,30.594,10.268,43.053,25.568,43.053
	S729.516,428.633,729.516,398.039z"/>
<g>
	<path fill="#FFEC00" d="M417.805,393.226l177.092-147.66h19.256v81.639l-88.77,72.494v1.832l88.77,69.949v82.953h-19.256
		L417.805,410.015V393.226z"/>
</g>
</svg>
