<?xml version="1.0" encoding="utf-8"?>
<!-- Generator: Adobe Illustrator 15.0.0, SVG Export Plug-In . SVG Version: 6.00 Build 0)  -->
<!DOCTYPE svg PUBLIC "-//W3C//DTD SVG 1.1//EN" "http://www.w3.org/Graphics/SVG/1.1/DTD/svg11.dtd">
<svg version="1.1" id="Calque_1" xmlns="http://www.w3.org/2000/svg" xmlns:xlink="http://www.w3.org/1999/xlink" x="0px" y="0px"
	 width="1200px" height="800px" viewBox="0 0 1200 800" enable-background="new 0 0 1200 800" xml:space="preserve">
<path fill="none" stroke="#E20613" stroke-width="41.4339" d="M767.254,400.001c0,89.62-72.648,162.271-162.271,162.271
	c-89.618,0-162.278-72.65-162.278-162.271c0-89.622,72.658-162.273,162.278-162.273
	C694.604,237.726,767.254,310.379,767.254,400.001z"/>
<g>
	<g>
		<path fill="#E20613" d="M603.883,377.249l59.738-53.001h6.494v50.904l-29.941,24.561v0.897l29.941,23.956v50.906h-6.494
			l-59.738-52.703V377.249z"/>
	</g>
	<g>
		<path fill="#E20613" d="M603.854,422.471l-59.737,52.998h-6.493v-50.906l29.948-24.559v-0.899l-29.948-23.955v-50.902h6.493
			l59.737,52.699V422.471z"/>
	</g>
</g>
</svg>
