<?xml version="1.0" encoding="utf-8"?>
<!-- Generator: Adobe Illustrator 15.0.0, SVG Export Plug-In . SVG Version: 6.00 Build 0)  -->
<!DOCTYPE svg PUBLIC "-//W3C//DTD SVG 1.1//EN" "http://www.w3.org/Graphics/SVG/1.1/DTD/svg11.dtd">
<svg version="1.1" id="Calque_1" xmlns="http://www.w3.org/2000/svg" xmlns:xlink="http://www.w3.org/1999/xlink" x="0px" y="0px"
	 width="1200px" height="800px" viewBox="0 0 1200 800" enable-background="new 0 0 1200 800" xml:space="preserve">
<g>
	<path fill="#009EE2" d="M781.245,401.877c0-4.451-7.174-4.548-12.715-6.529c-55.68-19.887-91.193-68.037-125.729-47.822
		c-13.607,7.965-27.184,27.639-27.184,54.351"/>
	<path fill="#009EE2" d="M781.245,401.877c0,4.453-7.174,4.549-12.715,6.529c-55.68,19.891-91.193,68.039-125.729,47.824
		c-13.607-7.965-27.184-27.639-27.184-54.354"/>
</g>
<g>
	<path fill="#009EE2" d="M418.755,393.225l177.092-147.66h19.256v81.639l-88.773,72.494v1.832l88.773,69.951v82.953h-19.256
		L418.755,410.015V393.225z"/>
</g>
</svg>
