<?xml version="1.0" encoding="utf-8"?>
<!-- Generator: Adobe Illustrator 15.0.0, SVG Export Plug-In . SVG Version: 6.00 Build 0)  -->
<!DOCTYPE svg PUBLIC "-//W3C//DTD SVG 1.1//EN" "http://www.w3.org/Graphics/SVG/1.1/DTD/svg11.dtd">
<svg version="1.1" id="Calque_1" xmlns="http://www.w3.org/2000/svg" xmlns:xlink="http://www.w3.org/1999/xlink" x="0px" y="0px"
	 width="1200px" height="800px" viewBox="0 0 1200 800" enable-background="new 0 0 1200 800" xml:space="preserve">
<path fill="none" stroke="#009EE2" stroke-width="41.4339" d="M762.276,400c0,89.621-72.65,162.271-162.273,162.271
	c-89.617,0-162.277-72.65-162.277-162.271c0-89.622,72.658-162.273,162.277-162.273C689.625,237.726,762.276,310.378,762.276,400z"
	/>
<g>
	<g>
		<path fill="#009EE2" d="M626.946,398.741c0,44.68-12.619,80.887-28.193,80.887c-15.564,0-28.187-36.207-28.187-80.887
			c0-44.658,12.621-80.879,28.187-80.879C614.324,317.863,626.946,354.081,626.946,398.741z"/>
		<path fill="#009EE2" d="M598.748,370.554c44.68,0,80.889,12.625,80.889,28.192c0,15.568-36.209,28.189-80.889,28.189
			c-44.662,0-80.874-12.621-80.874-28.189C517.874,383.179,554.086,370.554,598.748,370.554z"/>
	</g>
</g>
</svg>
