<?xml version="1.0" encoding="utf-8"?>
<!-- Generator: Adobe Illustrator 15.0.0, SVG Export Plug-In . SVG Version: 6.00 Build 0)  -->
<!DOCTYPE svg PUBLIC "-//W3C//DTD SVG 1.1//EN" "http://www.w3.org/Graphics/SVG/1.1/DTD/svg11.dtd">
<svg version="1.1" id="Calque_1" xmlns="http://www.w3.org/2000/svg" xmlns:xlink="http://www.w3.org/1999/xlink" x="0px" y="0px"
	 width="1200px" height="800px" viewBox="0 0 1200 800" enable-background="new 0 0 1200 800" xml:space="preserve">
<g>
	<g>
		<path fill="#009EE2" d="M696.994,399.144c0,54.861-15.494,99.326-34.621,99.326c-19.113,0-34.607-44.465-34.607-99.326
			c0-54.84,15.494-99.314,34.607-99.314C681.5,299.83,696.994,344.304,696.994,399.144z"/>
		<path fill="#009EE2" d="M662.369,364.531c54.865,0,99.326,15.504,99.326,34.621c0,19.115-44.461,34.613-99.326,34.613
			c-54.84,0-99.307-15.498-99.307-34.613C563.063,380.035,607.53,364.531,662.369,364.531z"/>
	</g>
</g>
<g>
	<path fill="#009EE2" d="M391.992,392.373l177.092-147.66h19.256v81.639l-88.77,72.494v1.832l88.77,69.951v82.953h-19.256
		L391.992,409.164V392.373z"/>
</g>
</svg>
