<?xml version="1.0" encoding="utf-8"?>
<!-- Generator: Adobe Illustrator 13.0.0, SVG Export Plug-In . SVG Version: 6.00 Build 14948)  -->
<!DOCTYPE svg PUBLIC "-//W3C//DTD SVG 1.0//EN" "http://www.w3.org/TR/2001/REC-SVG-20010904/DTD/svg10.dtd">
<svg version="1.0" xmlns="http://www.w3.org/2000/svg" xmlns:xlink="http://www.w3.org/1999/xlink" x="0px" y="0px" width="800px"
	 height="600px" viewBox="0 0 800 600" enable-background="new 0 0 800 600" xml:space="preserve">
<g id="Layer_3">
	<path fill-rule="evenodd" clip-rule="evenodd" fill="none" stroke="#000000" stroke-width="0.5" d="M210.501,369.398
		c24.346,7.111,22.301-12.152,43.076-8.625c10.565,31.355,99.624,54.16,163.685,60.309
		c83.738-86.655,160.793-188.188,198.164-275.69c-39.757-32.822-65.822,6.416-86.153-17.233
		c-33.015,34.601-90.613,20.716-137.854,25.828c-65.543,63.126-193.084,102.438-206.776,189.553
		C207.804,337.598,201.299,361.351,210.501,369.398z M294.434,411.586C294.756,411.264,294.228,411.792,294.434,411.586
		L294.434,411.586z M470.461-5.375C470.783-5.697,470.255-5.169,470.461-5.375L470.461-5.375z M516.681,41.828
		C517.002,41.506,516.475,42.034,516.681,41.828L516.681,41.828z M531.923-17.667C532.245-17.99,531.717-17.461,531.923-17.667
		L531.923-17.667z M779.247-35.368c0.109,0.381,0.013,0.97,0.491,0.983C779.628-34.766,779.725-35.355,779.247-35.368z M831.858-3.9
		C832.181-4.222,831.652-3.694,831.858-3.9L831.858-3.9z"/>
</g>
<g id="Layer_2">
</g>
</svg>
