<?xml version="1.0" encoding="utf-8"?>
<!-- Generator: Adobe Illustrator 13.0.0, SVG Export Plug-In . SVG Version: 6.00 Build 14948)  -->
<!DOCTYPE svg PUBLIC "-//W3C//DTD SVG 1.0//EN" "http://www.w3.org/TR/2001/REC-SVG-20010904/DTD/svg10.dtd">
<svg version="1.0" xmlns="http://www.w3.org/2000/svg" xmlns:xlink="http://www.w3.org/1999/xlink" x="0px" y="0px" width="800px"
	 height="600px" viewBox="0 0 800 600" enable-background="new 0 0 800 600" xml:space="preserve">
<g id="Layer_3">
	<path fill-rule="evenodd" clip-rule="evenodd" fill="none" stroke="#000000" d="M294.434,411.586
		C294.756,411.264,294.228,411.792,294.434,411.586L294.434,411.586z M327.281,89.328c-46.094,41.531-47,43.688-96.047,82.328
		c19.781,61.906-118.781,180.328-41.156,260.656c56.031,13.688,132.281,76.906,219.516,123.5
		c114.625-23.766,235.297-186.719,246.953-315.578c-107.578-47.906-242.75-68.203-329.266-137.203
		C334.906,103.094,342.859,91.922,327.281,89.328z M470.461-5.375C470.783-5.697,470.255-5.169,470.461-5.375L470.461-5.375z
		 M516.681,41.828C517.002,41.506,516.475,42.034,516.681,41.828L516.681,41.828z M531.923-17.667
		C532.245-17.99,531.717-17.461,531.923-17.667L531.923-17.667z M779.247-35.368c0.109,0.381,0.013,0.97,0.491,0.983
		C779.628-34.766,779.725-35.355,779.247-35.368z M831.858-3.9C832.181-4.222,831.652-3.694,831.858-3.9L831.858-3.9z"/>
</g>
<g id="Layer_2">
</g>
</svg>
