<?xml version="1.0" encoding="utf-8"?>
<!-- Generator: Adobe Illustrator 13.0.0, SVG Export Plug-In . SVG Version: 6.00 Build 14948)  -->
<!DOCTYPE svg PUBLIC "-//W3C//DTD SVG 1.0//EN" "http://www.w3.org/TR/2001/REC-SVG-20010904/DTD/svg10.dtd">
<svg version="1.0" id="Layer_1" xmlns="http://www.w3.org/2000/svg" xmlns:xlink="http://www.w3.org/1999/xlink" x="0px" y="0px"
	 width="800px" height="600px" viewBox="0 0 800 600" enable-background="new 0 0 800 600" xml:space="preserve">
<g id="Layer_2" display="none">
	<path display="inline" fill="none" stroke="#000000" stroke-width="0.5" d="M541.035,153.057
		c0.146,14.529,2.367,24.729,2.344,35.152c-24.367,7.608-60.434,7.627-98.428,7.028c-39.438-0.618-92.863,4.742-119.521-4.686
		c-13.332-4.717-37.32-17.686-39.84-35.154c27.783-9.561,81.933-3.932,124.205-2.342
		C455.414,154.77,501.066,152.043,541.035,153.057z"/>
	<path display="inline" fill="none" stroke="#000000" stroke-width="0.5" d="M538.691,206.957c5.945,29,3.24,50.276,0,82.021
		c-14.748,1.859-34.924-7.975-44.527-18.748c-32.574-8.43-60.205-27.961-89.053-42.182c-8.682-4.279-24.641-4.328-23.438-18.748
		C427.943,199.994,493.334,204.918,538.691,206.957z"/>
	<path display="inline" fill="none" stroke="#000000" stroke-width="0.5" d="M264.5,138.994
		c22.424,27.338,22.32,65.709,46.871,86.711c-5.16,8.795,4.771,5.108,0,11.717c1.02,2.885,3,4.812,7.029,4.688
		c-4.393,4.463-0.258,5.888,0,11.718c17.385,28.707,25.781,66.395,46.869,91.396c-6.367,8.559,8.412,11.426,2.346,18.748
		c12.121,15.037,19.709,46.973,35.15,65.617c0.15,17.569-25.604,31.735-39.84,21.092c-8.889-6.646-17.297-49.983-23.436-60.932
		c-7.521-8.92-18.516-26.746-16.404-37.496c-16.318-14.928-17.055-45.439-32.809-60.933c7.328-6.09-6.09-11.604-7.031-14.061
		c-2-5.225,6.941,0.9,0-7.031c-4.504-5.146-2.564-8.026-4.688-14.061c-4.773-13.564-17.059-35.504-23.434-51.558
		c-1.771-4.461-3.371-6.614-4.688-9.375c-0.588-1.229-3.887-9.545-7.031-14.061c-7.555-10.846-20.217-29.701-9.373-42.185
		C244.189,138.994,254.346,138.994,264.5,138.994z"/>
</g>
<path fill="none" stroke="#000000" stroke-width="0.5" d="M190.5,133.5c7.582-4.193,19.444-2.61,28.249-3.003
	c15.194-0.679,30.606-1.161,45.936-1.974c20.68-1.096,41-1.112,61.815-2.023c44.92-1.965,91.035-0.82,136-3.052
	c15.765-0.782,42.54-5.715,57,0c10.448,4.129,6.389,11.083,4.272,20.989c-3.864,18.091-7.706,36.139-10.299,54.313
	c-3.157,22.125-3.753,40.973,1.749,62.646c7.211,28.406,5.648,57.962,8.226,86.984c1.91,21.507,7.202,42.789,9.075,64.119
	c1.505,17.14-4.705,39.603,1.074,55.6c-21.284-8.92-53.228-0.904-75.843,0.404c-33.562,1.941-66.284,1.724-100.376,0.048
	c-53.215-2.615-106.785-8.376-159.878-6.052c-3.432,0.15-6.563,0.553-9.872,0.849c1.778-11.354,7.129-24.687,10.653-35.874
	c5.705-18.109,6.856-35.843,10.219-54.379c4.998-27.554,7.322-52.523,4.948-80.428c-2.38-27.971-11.924-54.499-8.722-83.283
	c1.188-10.678,3.898-20.858,2.774-31.884c-0.942-9.237-4.824-17.789-6.223-27c-0.657-4.33-0.242-9.274-2.781-12.997
	c-2.031-2.979-6.395-6.715-5.997-5.003"/>
</svg>
