<?xml version="1.0" encoding="utf-8"?>
<!-- Generator: Adobe Illustrator 13.0.0, SVG Export Plug-In . SVG Version: 6.00 Build 14948)  -->
<!DOCTYPE svg PUBLIC "-//W3C//DTD SVG 1.0//EN" "http://www.w3.org/TR/2001/REC-SVG-20010904/DTD/svg10.dtd">
<svg version="1.0" id="Layer_1" xmlns="http://www.w3.org/2000/svg" xmlns:xlink="http://www.w3.org/1999/xlink" x="0px" y="0px"
	 width="800px" height="600px" viewBox="0 0 800 600" enable-background="new 0 0 800 600" xml:space="preserve">
<g id="Layer_2" display="none">
	<path display="inline" fill="none" stroke="#000000" stroke-width="0.5" d="M541.035,153.057
		c0.146,14.529,2.367,24.729,2.344,35.152c-24.367,7.608-60.434,7.627-98.428,7.028c-39.438-0.618-92.863,4.742-119.521-4.686
		c-13.332-4.717-37.32-17.686-39.84-35.154c27.783-9.561,81.933-3.932,124.205-2.342
		C455.414,154.77,501.066,152.043,541.035,153.057z"/>
	<path display="inline" fill="none" stroke="#000000" stroke-width="0.5" d="M538.691,206.957c5.945,29,3.24,50.276,0,82.021
		c-14.748,1.859-34.924-7.975-44.527-18.748c-32.574-8.43-60.205-27.961-89.053-42.182c-8.682-4.279-24.641-4.328-23.438-18.748
		C427.943,199.994,493.334,204.918,538.691,206.957z"/>
	<path display="inline" fill="none" stroke="#000000" stroke-width="0.5" d="M264.5,138.994
		c22.424,27.338,22.32,65.709,46.871,86.711c-5.16,8.795,4.771,5.108,0,11.717c1.02,2.885,3,4.812,7.029,4.688
		c-4.393,4.463-0.258,5.888,0,11.718c17.385,28.707,25.781,66.395,46.869,91.396c-6.367,8.559,8.412,11.426,2.346,18.748
		c12.121,15.037,19.709,46.973,35.15,65.617c0.15,17.569-25.604,31.735-39.84,21.092c-8.889-6.646-17.297-49.983-23.436-60.932
		c-7.521-8.92-18.516-26.746-16.404-37.496c-16.318-14.928-17.055-45.439-32.809-60.933c7.328-6.09-6.09-11.604-7.031-14.061
		c-2-5.225,6.941,0.9,0-7.031c-4.504-5.146-2.564-8.026-4.688-14.061c-4.773-13.564-17.059-35.504-23.434-51.558
		c-1.771-4.461-3.371-6.614-4.688-9.375c-0.588-1.229-3.887-9.545-7.031-14.061c-7.555-10.846-20.217-29.701-9.373-42.185
		C244.189,138.994,254.346,138.994,264.5,138.994z"/>
</g>
<path fill="none" stroke="#000000" stroke-width="0.5" d="M330.5,208.5c-8.127-9.629-10.05-24.255-19.147-34.667
	c-16.937-19.382-39.625-37.99-66.075-41.158c-63.375-7.591-115.762,69.367-71.073,121.819c13.377,15.7,40.414,27.583,61.149,19.752
	c12.417-4.689,10.696-13.846-2.276-5.742c-22.109,13.812-41.618,36.915-50.573,61.709c-10.698,29.622,1.973,67.571,18.132,92.908
	c20.186,31.651,46.798,22.567,67.84-1.602c12.89-14.806,30.907-37.524,29.023-58.717c-1.58,46.754,43.878,106.634,94.483,99.039
	c53.3-7.999,66.805-68.925,40.863-109.114c7.509,24.837,27.379,44.729,50.653,55.041c38.836,17.207,73.28-3.336,88.749-40.481
	c15.42-37.031,9.178-78.118-29.753-96.832c-12.459-5.99-58.554-19.044-67.868-4.133c12.262-1.109,25.711-21.829,30.898-31.61
	c10.685-20.143,11.249-41.092-2.252-60.264c-11.133-15.808-35.52-23.188-52.038-10.948c-10.126,7.503-13.243,21.069-15.808,32.698
	c10.479-22.379,24.355-53.816,6.875-75.726c-17.224-21.59-54.625-34.999-78.078-16.194c-17.69,14.185-24.903,38.537-28.671,59.778
	c-2.571,14.494-5.913,29.973-7.055,44.143c0-0.895-0.049-1.805,0-2.698"/>
</svg>
