<?xml version="1.0" encoding="utf-8"?>
<!-- Generator: Adobe Illustrator 13.0.0, SVG Export Plug-In . SVG Version: 6.00 Build 14948)  -->
<!DOCTYPE svg PUBLIC "-//W3C//DTD SVG 1.0//EN" "http://www.w3.org/TR/2001/REC-SVG-20010904/DTD/svg10.dtd">
<svg version="1.0" id="Layer_1" xmlns="http://www.w3.org/2000/svg" xmlns:xlink="http://www.w3.org/1999/xlink" x="0px" y="0px"
	 width="800px" height="600px" viewBox="0 0 800 600" enable-background="new 0 0 800 600" xml:space="preserve">
<g id="Layer_2" display="none">
	<path display="inline" fill="none" stroke="#000000" stroke-width="0.5" d="M541.035,153.057
		c0.146,14.529,2.367,24.729,2.344,35.152c-24.367,7.608-60.434,7.627-98.428,7.028c-39.438-0.618-92.863,4.742-119.521-4.686
		c-13.332-4.717-37.32-17.686-39.84-35.154c27.783-9.561,81.933-3.932,124.205-2.342
		C455.414,154.77,501.066,152.043,541.035,153.057z"/>
	<path display="inline" fill="none" stroke="#000000" stroke-width="0.5" d="M538.691,206.957c5.945,29,3.24,50.276,0,82.021
		c-14.748,1.859-34.924-7.975-44.527-18.748c-32.574-8.43-60.205-27.961-89.053-42.182c-8.682-4.279-24.641-4.328-23.438-18.748
		C427.943,199.994,493.334,204.918,538.691,206.957z"/>
	<path display="inline" fill="none" stroke="#000000" stroke-width="0.5" d="M264.5,138.994
		c22.424,27.338,22.32,65.709,46.871,86.711c-5.16,8.795,4.771,5.108,0,11.717c1.02,2.885,3,4.812,7.029,4.688
		c-4.393,4.463-0.258,5.888,0,11.718c17.385,28.707,25.781,66.395,46.869,91.396c-6.367,8.559,8.412,11.426,2.346,18.748
		c12.121,15.037,19.709,46.973,35.15,65.617c0.15,17.569-25.604,31.735-39.84,21.092c-8.889-6.646-17.297-49.983-23.436-60.932
		c-7.521-8.92-18.516-26.746-16.404-37.496c-16.318-14.928-17.055-45.439-32.809-60.933c7.328-6.09-6.09-11.604-7.031-14.061
		c-2-5.225,6.941,0.9,0-7.031c-4.504-5.146-2.564-8.026-4.688-14.061c-4.773-13.564-17.059-35.504-23.434-51.558
		c-1.771-4.461-3.371-6.614-4.688-9.375c-0.588-1.229-3.887-9.545-7.031-14.061c-7.555-10.846-20.217-29.701-9.373-42.185
		C244.189,138.994,254.346,138.994,264.5,138.994z"/>
</g>
<path fill="none" stroke="#000000" stroke-width="0.5" d="M368.532,104.982c10.325-0.638,22.347,6.016,31.144,8.314
	c11.912,3.112,22.113,5.576,33.023,12.722c32.539,21.312,58.617,47.79,80.223,80.278c7.229,10.871,16.059,22.788,20.58,35.278
	c4.36,12.045,3.911,25.237,5.252,37.722c3.083,28.695,9.615,53.759,2.196,82.439c-6.155,23.793-15.532,55.754-32.005,74.613
	c-15.521,17.77-44.683,25.053-66.972,27.924c-25.903,3.338-52.25-4.613-77.474-9.004c-28.359-4.938-51.701-20.018-74.849-36.217
	c-18.809-13.162-36.001-21.512-44.203-44.637c-8.263-23.295-10.679-51.916-13.777-76.341c-5.241-41.311,5.59-92.513,25.777-128.852
	c10.845-19.521,28.187-37.853,48.244-48.196c11.828-6.1,25.273-6.902,37.843-10.729c7.405-2.255,9.827-2.51,25.251-4.932"/>
</svg>
