<?xml version="1.0" encoding="utf-8"?>
<!-- Generator: Adobe Illustrator 15.0.0, SVG Export Plug-In . SVG Version: 6.00 Build 0)  -->
<!DOCTYPE svg PUBLIC "-//W3C//DTD SVG 1.1//EN" "http://www.w3.org/Graphics/SVG/1.1/DTD/svg11.dtd">
<svg version="1.1" id="Calque_1" xmlns="http://www.w3.org/2000/svg" xmlns:xlink="http://www.w3.org/1999/xlink" x="0px" y="0px"
	 width="1200px" height="800px" viewBox="0 0 1200 800" enable-background="new 0 0 1200 800" xml:space="preserve">
<g>
	<g>
		<g>
			<path fill="#009EE2" d="M699.753,399.992c0,59.25-16.732,107.273-37.389,107.273c-20.641,0-37.379-48.023-37.379-107.273
				c0-59.225,16.738-107.258,37.379-107.258C683.021,292.734,699.753,340.767,699.753,399.992z"/>
			<path fill="#009EE2" d="M662.359,362.611c59.258,0,107.277,16.744,107.277,37.389c0,20.646-48.02,37.385-107.277,37.385
				c-59.227,0-107.246-16.738-107.246-37.385C555.113,379.355,603.132,362.611,662.359,362.611z"/>
		</g>
	</g>
	<g>
		<path fill="#009EE2" d="M430.365,569.627V230.373h94.547v339.254H430.365z"/>
	</g>
</g>
</svg>
