<?xml version="1.0" encoding="utf-8"?>
<!-- Generator: Adobe Illustrator 15.0.0, SVG Export Plug-In . SVG Version: 6.00 Build 0)  -->
<!DOCTYPE svg PUBLIC "-//W3C//DTD SVG 1.1//EN" "http://www.w3.org/Graphics/SVG/1.1/DTD/svg11.dtd">
<svg version="1.1" id="Calque_1" xmlns="http://www.w3.org/2000/svg" xmlns:xlink="http://www.w3.org/1999/xlink" x="0px" y="0px"
	 width="1200px" height="800px" viewBox="0 0 1200 800" enable-background="new 0 0 1200 800" xml:space="preserve">
<path fill="none" stroke="#009EE2" stroke-width="41.4339" d="M762.276,400.001c0,89.62-72.65,162.271-162.273,162.271
	c-89.617,0-162.277-72.65-162.277-162.271c0-89.622,72.658-162.273,162.277-162.273
	C689.625,237.726,762.276,310.379,762.276,400.001z"/>
<g>
	<path fill="#009EE2" d="M685.526,398.746c0-4.43-7.141-4.524-12.652-6.497c-55.402-19.787-90.739-67.697-125.102-47.584
		c-13.541,7.925-27.049,27.499-27.049,54.081"/>
	<path fill="#009EE2" d="M685.526,398.746c0,4.432-7.141,4.527-12.652,6.498c-55.402,19.789-90.739,67.699-125.102,47.586
		c-13.541-7.926-27.049-27.5-27.049-54.083"/>
</g>
</svg>
