<?xml version="1.0" encoding="utf-8"?>
<!-- Generator: Adobe Illustrator 15.0.0, SVG Export Plug-In . SVG Version: 6.00 Build 0)  -->
<!DOCTYPE svg PUBLIC "-//W3C//DTD SVG 1.1//EN" "http://www.w3.org/Graphics/SVG/1.1/DTD/svg11.dtd">
<svg version="1.1" id="Calque_1" xmlns="http://www.w3.org/2000/svg" xmlns:xlink="http://www.w3.org/1999/xlink" x="0px" y="0px"
	 width="1200px" height="800px" viewBox="0 0 1200 800" enable-background="new 0 0 1200 800" xml:space="preserve">
<path fill="none" stroke="#FFEC00" stroke-width="41.4339" d="M762.275,400.001c0,89.62-72.649,162.271-162.272,162.271
	c-89.617,0-162.277-72.65-162.277-162.271c0-89.622,72.658-162.273,162.277-162.273
	C689.624,237.726,762.275,310.379,762.275,400.001z"/>
<path fill="#FFEC00" d="M516.73,400.687c0-53.931,36.956-84.379,82.982-84.379c46.262,0,83.225,30.451,83.225,84.379
	c0,53.929-35.801,83.451-83.225,83.451C552.291,484.14,516.73,454.617,516.73,400.687z M626.91,400.921
	c0-32.543-10.926-45.794-27.196-45.794c-16.271,0-27.196,13.251-27.196,45.794c0,32.544,10.925,45.794,27.196,45.794
	C615.984,446.715,626.91,433.465,626.91,400.921z"/>
</svg>
