<?xml version="1.0" encoding="utf-8"?>
<!-- Generator: Adobe Illustrator 15.0.0, SVG Export Plug-In . SVG Version: 6.00 Build 0)  -->
<!DOCTYPE svg PUBLIC "-//W3C//DTD SVG 1.1//EN" "http://www.w3.org/Graphics/SVG/1.1/DTD/svg11.dtd">
<svg version="1.1" id="Calque_1" xmlns="http://www.w3.org/2000/svg" xmlns:xlink="http://www.w3.org/1999/xlink" x="0px" y="0px"
	 width="1200px" height="800px" viewBox="0 0 1200 800" enable-background="new 0 0 1200 800" xml:space="preserve">
<path fill="#FFEC00" d="M579.766,400.474c0-54.762,37.527-85.684,84.266-85.684c46.975,0,84.506,30.922,84.506,85.684
	c0,54.76-36.35,84.736-84.506,84.736C615.879,485.211,579.766,455.234,579.766,400.474z M691.649,400.709
	c0-33.043-11.092-46.5-27.617-46.5c-16.521,0-27.613,13.457-27.613,46.5c0,33.047,11.092,46.502,27.613,46.502
	C680.557,447.211,691.649,433.756,691.649,400.709z"/>
<g>
	<path fill="#FFEC00" stroke="#FFEC00" stroke-width="2.7" d="M451.463,569.629V230.371h94.549v339.258H451.463z"/>
</g>
</svg>
